<svg height="512" viewBox="0 0 64 64" width="512" xmlns="http://www.w3.org/2000/svg"><g id="recept"><rect fill="#ffeb99" height="34" rx="4" width="58" x="3" y="27"/><path d="m26.73 45.27-23.73-12.27v-2a4 4 0 0 1 4-4h20v4h-4l9 10 9-10h-4v-4h20a4 4 0 0 1 4 4v2l-23.73 12.27-5.27 2.73z" fill="#ffcd00"/><path d="m61 33v24a4 4 0 0 1 -4 4h-2a4 4 0 0 0 4-4v-22.97z" fill="#ffcd00"/><path d="m61 31v2l-2 1.03v-3.03a4 4 0 0 0 -4-4h2a4 4 0 0 1 4 4z" fill="#cca400"/><path d="m61 13-9 10-9-10h4v-10h10v10z" fill="#ff7956"/><path d="m53 61h-42l15.73-15.73 5.27 2.73 5.27-2.73z" fill="#ffcd00"/><path d="m41 31-9 10-9-10h4v-4-6h10v6 4z" fill="#ff7956"/><path d="m21 13-9 10-9-10h4v-10h10v10z" fill="#ff7956"/><path d="m57 26h-19v-5a1 1 0 0 0 -1-1h-10a1 1 0 0 0 -1 1v5h-19a5.006 5.006 0 0 0 -5 5v26a5.006 5.006 0 0 0 5 5h50a5.006 5.006 0 0 0 5-5v-26a5.006 5.006 0 0 0 -5-5zm-29 5v-9h8v9a1 1 0 0 0 1 1h1.755l-6.755 7.505-6.755-7.505h1.755a1 1 0 0 0 1-1zm-21-3h19v2h-3a1 1 0 0 0 -.743 1.669l9 10a1 1 0 0 0 1.486 0l9-10a1 1 0 0 0 -.743-1.669h-3v-2h19a3 3 0 0 1 3 3v1.392l-28 14.482-28-14.482v-1.392a3 3 0 0 1 3-3zm24.541 20.888a1 1 0 0 0 .918 0l4.623-2.388 13.504 13.5h-37.172l13.5-13.5zm-27.541 8.112v-22.357l21.053 10.89-14.467 14.467h-3.586a3 3 0 0 1 -3-3zm53 3h-3.586l-14.468-14.467 21.054-10.89v22.357a3 3 0 0 1 -3 3z"/><path d="m11.257 23.669a1 1 0 0 0 1.486 0l9-10a1 1 0 0 0 -.743-1.669h-3v-9a1 1 0 0 0 -1-1h-10a1 1 0 0 0 -1 1v9h-3a1 1 0 0 0 -.743 1.669zm-4.257-9.669a1 1 0 0 0 1-1v-9h8v9a1 1 0 0 0 1 1h1.755l-6.755 7.505-6.755-7.505z"/><path d="m51.257 23.669a1 1 0 0 0 1.486 0l9-10a1 1 0 0 0 -.743-1.669h-3v-9a1 1 0 0 0 -1-1h-10a1 1 0 0 0 -1 1v9h-3a1 1 0 0 0 -.743 1.669zm-4.257-9.669a1 1 0 0 0 1-1v-9h8v9a1 1 0 0 0 1 1h1.755l-6.755 7.505-6.755-7.505z"/></g></svg>