<svg height="512" viewBox="0 0 64 64" width="512" xmlns="http://www.w3.org/2000/svg"><g id="sent"><rect fill="#ffeb99" height="34" rx="4" width="58" x="3" y="27"/><path d="m26.73 45.27-23.73-12.27v-2a4 4 0 0 1 4-4h18.7l-2.7 3h4v10h10v-10h4l-2.7-3h18.7a4 4 0 0 1 4 4v2l-23.73 12.27-5.27 2.73z" fill="#ffcd00"/><path d="m61 33v24a4 4 0 0 1 -4 4h-2a4 4 0 0 0 4-4v-22.97z" fill="#ffcd00"/><path d="m61 31v2l-2 1.03v-3.03a4 4 0 0 0 -4-4h2a4 4 0 0 1 4 4z" fill="#cca400"/><path d="m52 3 9 10h-4v10h-10v-10h-4z" fill="#57a4ff"/><path d="m53 61h-42l15.73-15.73 5.27 2.73 5.27-2.73z" fill="#ffcd00"/><path d="m38.3 27 2.7 3h-4v10h-10v-10h-4l2.7-3 6.3-7z" fill="#57a4ff"/><path d="m12 3 9 10h-4v10h-10v-10h-4z" fill="#57a4ff"/><path d="m57 26h-18.255l-6-6.669a1.03 1.03 0 0 0 -1.486 0l-6 6.669h-18.259a5.006 5.006 0 0 0 -5 5v26a5.006 5.006 0 0 0 5 5h50a5.006 5.006 0 0 0 5-5v-26a5.006 5.006 0 0 0 -5-5zm-25-4.5 6.755 7.5h-1.755a1 1 0 0 0 -1 1v9h-8v-9a1 1 0 0 0 -1-1h-1.755zm-25 6.5h16.455l-1.2 1.331a1 1 0 0 0 .745 1.669h3v9a1 1 0 0 0 1 1h10a1 1 0 0 0 1-1v-9h3a1 1 0 0 0 .743-1.669l-1.198-1.331h16.455a3 3 0 0 1 3 3v1.392l-28 14.482-28-14.482v-1.392a3 3 0 0 1 3-3zm24.541 20.888a1 1 0 0 0 .918 0l4.623-2.388 13.504 13.5h-37.172l13.5-13.5zm-27.541 8.112v-22.357l21.053 10.89-14.467 14.467h-3.586a3 3 0 0 1 -3-3zm53 3h-3.586l-14.468-14.467 21.054-10.89v22.357a3 3 0 0 1 -3 3z"/><path d="m3 14h3v9a1 1 0 0 0 1 1h10a1 1 0 0 0 1-1v-9h3a1 1 0 0 0 .743-1.669l-9-10a1.03 1.03 0 0 0 -1.486 0l-9 10a1 1 0 0 0 .743 1.669zm9-9.5 6.755 7.5h-1.755a1 1 0 0 0 -1 1v9h-8v-9a1 1 0 0 0 -1-1h-1.755z"/><path d="m43 14h3v9a1 1 0 0 0 1 1h10a1 1 0 0 0 1-1v-9h3a1 1 0 0 0 .743-1.669l-9-10a1.03 1.03 0 0 0 -1.486 0l-9 10a1 1 0 0 0 .743 1.669zm9-9.5 6.755 7.5h-1.755a1 1 0 0 0 -1 1v9h-8v-9a1 1 0 0 0 -1-1h-1.755z"/></g></svg>